<svg width="256" height="256" viewBox="0 0 256 256" xmlns="http://www.w3.org/2000/svg">
  <defs>
    <linearGradient id="bg" x1="0" y1="0" x2="1" y2="1">
      <stop offset="0%" stop-color="#0F2747"/>
      <stop offset="100%" stop-color="#09192E"/>
    </linearGradient>
    <linearGradient id="accent" x1="0" y1="0" x2="1" y2="1">
      <stop offset="0%" stop-color="#57E5FF"/>
      <stop offset="100%" stop-color="#00AEEF"/>
    </linearGradient>
  </defs>

  <rect x="12" y="12" width="232" height="232" rx="52" fill="url(#bg)"/>

  <g opacity="0.55" stroke="#2E6F9A" stroke-width="5" fill="none">
    <path d="M45 85 H92"/>
    <path d="M45 171 H92"/>
    <path d="M164 85 H211"/>
    <path d="M164 171 H211"/>
  </g>

  <path d="M128 45 L183 77 L183 141 L128 173 L73 141 L73 77 Z"
        fill="none" stroke="url(#accent)" stroke-width="12" stroke-linejoin="round"/>

  <path d="M86 124 C100 106, 114 142, 128 124 C142 106, 156 142, 170 124"
        fill="none" stroke="#FFFFFF" stroke-width="10" stroke-linecap="round"/>

  <path d="M59 128 H93" stroke="#57E5FF" stroke-width="8" stroke-linecap="round"/>
  <path d="M197 128 H163" stroke="#57E5FF" stroke-width="8" stroke-linecap="round"/>
  <path d="M84 117 L94 128 L84 139" fill="none" stroke="#57E5FF" stroke-width="8" stroke-linecap="round" stroke-linejoin="round"/>
  <path d="M172 117 L162 128 L172 139" fill="none" stroke="#57E5FF" stroke-width="8" stroke-linecap="round" stroke-linejoin="round"/>

  <circle cx="196" cy="62" r="9" fill="#8BFF4D"/>
</svg>
